# This file uses centimeters as units for non-parametric coordinates.

mtllib Pillar_1.mtl
g default
v -102.999957 79.277093 50.000000
v 102.999957 79.277093 50.000000
v -102.999957 105.954097 50.000000
v 102.999957 105.954097 50.000000
v -102.999957 105.954097 -50.000000
v 102.999957 105.954097 -50.000000
v -102.999957 79.277093 -50.000000
v 102.999957 79.277093 -50.000000
v -80.111112 65.239623 50.000000
v -80.111112 65.239623 -50.000000
v -80.111112 100.410957 -50.000000
v -80.111112 100.410957 50.000000
v -57.222243 65.239623 50.000000
v -57.222243 65.239623 -50.000000
v -57.222243 116.875538 -50.000000
v -57.222243 116.875538 50.000000
v -34.333362 65.239623 50.000000
v -34.333362 65.239623 -50.000000
v -34.333362 140.140677 -50.000000
v -34.333362 140.140677 50.000000
v -11.444433 65.239623 50.000000
v -11.444433 65.239623 -50.000000
v -11.444433 170.206401 -50.000000
v -11.444433 170.206401 50.000000
v 11.444451 65.239623 50.000000
v 11.444451 65.239623 -50.000000
v 11.444451 170.206401 -50.000000
v 11.444451 170.206401 50.000000
v 34.333334 65.239623 50.000000
v 34.333334 65.239623 -50.000000
v 34.333334 140.140677 -50.000000
v 34.333334 140.140677 50.000000
v 57.222200 65.239623 50.000000
v 57.222200 65.239623 -50.000000
v 57.222200 116.875538 -50.000000
v 57.222200 116.875538 50.000000
v 80.111100 65.239623 50.000000
v 80.111100 65.239623 -50.000000
v 80.111100 100.410957 -50.000000
v 80.111100 100.410957 50.000000
vt 0.322339 0.037011
vt 0.169230 0.037011
vt 0.646861 0.038452
vt 0.493752 0.038452
vt 0.493753 0.003407
vt 0.646861 0.003407
vt 0.055842 0.036963
vt 0.493752 0.318810
vt 0.493752 0.283765
vt 0.169230 0.001966
vt 0.322339 0.001966
vt 0.001992 0.036963
vt 0.646860 0.283765
vt 0.646861 0.318810
vt 0.169230 0.317369
vt 0.169230 0.282324
vt 0.023484 0.001918
vt 0.493752 0.248721
vt 0.646861 0.248720
vt 0.322338 0.282324
vt 0.322339 0.317369
vt 0.064329 0.001918
vt 0.493752 0.213676
vt 0.646860 0.213676
vt 0.169230 0.247280
vt 0.322339 0.247280
vt 0.023484 0.317321
vt 0.493752 0.178631
vt 0.646861 0.178631
vt 0.169230 0.212235
vt 0.322338 0.212235
vt 0.001992 0.282277
vt 0.493752 0.143586
vt 0.646860 0.143586
vt 0.169231 0.177190
vt 0.322339 0.177190
vt 0.055842 0.282277
vt 0.493753 0.108542
vt 0.646861 0.108542
vt 0.169231 0.142145
vt 0.322339 0.142145
vt 0.064329 0.317321
vt 0.493752 0.073496
vt 0.646860 0.073496
vt 0.169231 0.107101
vt 0.322339 0.107101
vt 0.328504 0.282276
vt 0.382354 0.282276
vt 0.390841 0.317321
vt 0.349997 0.317321
vt 0.390841 0.001918
vt 0.382354 0.036963
vt 0.328504 0.036963
vt 0.349996 0.001918
vt 0.407563 0.072008
vt 0.328504 0.072008
vt 0.443184 0.107052
vt 0.328504 0.107052
vt 0.489217 0.142097
vt 0.328504 0.142097
vt 0.489217 0.177142
vt 0.328504 0.177142
vt 0.443184 0.212187
vt 0.328504 0.212187
vt 0.407563 0.247232
vt 0.328504 0.247232
vt 0.001992 0.247232
vt 0.081051 0.247232
vt 0.001992 0.212187
vt 0.116672 0.212187
vt 0.001992 0.177142
vt 0.162705 0.177142
vt 0.001992 0.142097
vt 0.162705 0.142097
vt 0.001992 0.107053
vt 0.116672 0.107053
vt 0.001992 0.072008
vt 0.081051 0.072008
vt 0.169230 0.072055
vt 0.322338 0.072055
vt 0.647054 0.951437
vt 0.647054 0.647583
vt 0.802937 0.647583
vt 0.802937 0.951437
vt 0.808320 0.951439
vt 0.808320 0.647585
vt 0.964204 0.647585
vt 0.964204 0.951439
vn 0.000000 0.000000 1.000000
vn 0.000000 0.000000 1.000000
vn 0.000000 0.000000 1.000000
vn 0.000000 0.000000 1.000000
vn 0.232062 0.972701 0.000000
vn 0.232062 0.972701 0.000000
vn -0.235372 0.971905 0.000000
vn -0.235372 0.971905 0.000000
vn 0.000000 0.000000 -1.000000
vn 0.000000 0.000000 -1.000000
vn 0.000000 0.000000 -1.000000
vn 0.000000 0.000000 -1.000000
vn 0.293170 -0.956060 0.000000
vn 0.293170 -0.956060 0.000000
vn 0.522801 -0.852455 0.000000
vn 0.522801 -0.852455 0.000000
vn 1.000000 0.000000 0.000000
vn 1.000000 0.000000 0.000000
vn 1.000000 0.000000 0.000000
vn 1.000000 0.000000 0.000000
vn -1.000000 0.000000 0.000000
vn -1.000000 0.000000 0.000000
vn -1.000000 0.000000 0.000000
vn -1.000000 0.000000 0.000000
vn -0.522801 -0.852455 0.000000
vn -0.293170 -0.956060 0.000000
vn -0.293170 -0.956060 0.000000
vn -0.522801 -0.852455 0.000000
vn 0.000000 0.000000 -1.000000
vn 0.000000 0.000000 -1.000000
vn 0.000000 0.000000 -1.000000
vn 0.000000 0.000000 -1.000000
vn 0.235373 0.971905 0.000000
vn -0.232063 0.972701 0.000000
vn -0.232063 0.972701 0.000000
vn 0.235373 0.971905 0.000000
vn 0.000000 0.000000 1.000000
vn 0.000000 0.000000 1.000000
vn 0.000000 0.000000 1.000000
vn 0.000000 0.000000 1.000000
vn 0.000000 -1.000000 0.000000
vn 0.000000 -1.000000 0.000000
vn 0.000000 0.000000 -1.000000
vn 0.000000 0.000000 -1.000000
vn -0.655455 0.755234 0.000000
vn -0.655455 0.755234 0.000000
vn 0.000000 0.000000 1.000000
vn 0.000000 0.000000 1.000000
vn 0.000000 -1.000000 0.000000
vn 0.000000 -1.000000 0.000000
vn 0.000000 0.000000 -1.000000
vn 0.000000 0.000000 -1.000000
vn -0.758795 0.651330 0.000000
vn -0.758795 0.651330 0.000000
vn 0.000000 0.000000 1.000000
vn 0.000000 0.000000 1.000000
vn 0.000000 -1.000000 0.000000
vn 0.000000 -1.000000 0.000000
vn 0.000000 0.000000 -1.000000
vn 0.000000 0.000000 -1.000000
vn -0.548963 0.835847 0.000000
vn -0.548963 0.835847 0.000000
vn 0.000000 0.000000 1.000000
vn 0.000000 0.000000 1.000000
vn 0.000000 -1.000000 0.000000
vn 0.000000 -1.000000 0.000000
vn 0.000000 0.000000 -1.000000
vn 0.000000 0.000000 -1.000000
vn 0.548963 0.835846 0.000000
vn 0.548963 0.835846 0.000000
vn 0.000000 0.000000 1.000000
vn 0.000000 0.000000 1.000000
vn 0.000000 -1.000000 0.000000
vn 0.000000 -1.000000 0.000000
vn 0.000000 0.000000 -1.000000
vn 0.000000 0.000000 -1.000000
vn 0.758795 0.651329 0.000000
vn 0.758795 0.651329 0.000000
vn 0.000000 0.000000 1.000000
vn 0.000000 0.000000 1.000000
vn 0.000000 -1.000000 0.000000
vn 0.000000 -1.000000 0.000000
vn 0.000000 0.000000 -1.000000
vn 0.000000 0.000000 -1.000000
vn 0.655455 0.755234 0.000000
vn 0.655455 0.755234 0.000000
vn 0.000000 0.000000 1.000000
vn 0.000000 0.000000 1.000000
s 1
g pCube2 Divivder_Low
usemtl initialShadingGroup
f 40/7/1 37/12/2 2/17/3 4/22/4
s 2
f 39/1/5 40/2/6 4/10/7 6/11/8
s 3
f 38/47/9 39/48/10 6/49/11 8/50/12
s 4
f 37/3/13 38/4/14 8/5/15 2/6/16
s off
f 2/81/17 8/82/18 6/83/19 4/84/20
f 7/85/21 1/86/22 3/87/23 5/88/24
s 4
f 7/8/25 10/9/26 9/13/27 1/14/28
s 3
f 5/51/29 11/52/30 10/53/31 7/54/32
s 2
f 3/15/33 12/16/34 11/20/35 5/21/36
s 1
f 1/27/37 9/32/38 12/37/39 3/42/40
s 4
f 9/13/27 10/9/26 14/18/41 13/19/42
s 3
f 10/53/31 11/52/30 15/55/43 14/56/44
s 2
f 11/20/35 12/16/34 16/25/45 15/26/46
s 1
f 12/37/39 9/32/38 13/67/47 16/68/48
s 4
f 13/19/42 14/18/41 18/23/49 17/24/50
s 3
f 14/56/44 15/55/43 19/57/51 18/58/52
s 2
f 15/26/46 16/25/45 20/30/53 19/31/54
s 1
f 16/68/48 13/67/47 17/69/55 20/70/56
s 4
f 17/24/50 18/23/49 22/28/57 21/29/58
s 3
f 18/58/52 19/57/51 23/59/59 22/60/60
s 2
f 19/31/54 20/30/53 24/35/61 23/36/62
s 1
f 20/70/56 17/69/55 21/71/63 24/72/64
s 4
f 21/29/58 22/28/57 26/33/65 25/34/66
s 3
f 22/60/60 23/59/59 27/61/67 26/62/68
s 2
f 23/36/62 24/35/61 28/40/69 27/41/70
s 1
f 24/72/64 21/71/63 25/73/71 28/74/72
s 4
f 25/34/66 26/33/65 30/38/73 29/39/74
s 3
f 26/62/68 27/61/67 31/63/75 30/64/76
s 2
f 27/41/70 28/40/69 32/45/77 31/46/78
s 1
f 28/74/72 25/73/71 29/75/79 32/76/80
s 4
f 29/39/74 30/38/73 34/43/81 33/44/82
s 3
f 30/64/76 31/63/75 35/65/83 34/66/84
s 2
f 31/46/78 32/45/77 36/79/85 35/80/86
s 1
f 32/76/80 29/75/79 33/77/87 36/78/88
s 4
f 33/44/82 34/43/81 38/4/14 37/3/13
s 3
f 34/66/84 35/65/83 39/48/10 38/47/9
s 2
f 35/80/86 36/79/85 40/2/6 39/1/5
s 1
f 36/78/88 33/77/87 37/12/2 40/7/1
g default
v -75.000000 -74.640538 40.000000
v 75.000000 -74.640538 40.000000
v -75.000000 63.680391 40.000000
v 75.000000 63.680391 40.000000
v -75.000000 63.680391 -40.000076
v 75.000000 63.680391 -40.000076
v -75.000000 -74.640538 -40.000076
v 75.000000 -74.640538 -40.000076
v -85.000008 -79.640539 -50.000000
v 85.000008 -79.640539 -50.000000
v 85.000008 -79.640539 50.000000
v -85.000008 -79.640539 50.000000
v -85.000008 -119.640543 -50.000000
v 85.000008 -119.640543 -50.000000
v 85.000008 -119.640543 50.000000
v -85.000008 -119.640543 50.000000
vt 0.651037 0.317579
vt 0.657010 0.324706
vt 0.651037 0.002176
vt 0.839428 0.324706
vt 0.394375 0.318734
vt 0.394375 0.634137
vt 0.358109 0.939637
vt 0.358109 0.661340
vt 0.376661 0.642787
vt 0.376662 0.958190
vt 0.839428 0.640109
vt 0.657010 0.640109
vt 0.001992 0.639274
vt 0.184411 0.639274
vt 0.641815 0.645608
vt 0.510412 0.645606
vt 0.998008 0.325233
vt 0.998008 0.640636
vt 0.465879 0.639548
vt 0.465879 0.324145
vt 0.651410 0.324145
vt 0.651410 0.639548
vt 0.103530 0.634137
vt 0.103529 0.318734
vt 0.184411 0.954677
vt 0.001992 0.954677
vt 0.941882 0.002176
vt 0.941882 0.317579
vt 0.209684 0.661340
vt 0.191130 0.642787
vt 0.209684 0.939637
vt 0.191131 0.958190
vt 0.918370 0.325233
vt 0.918370 0.640636
vt 0.844157 0.640636
vt 0.844158 0.325233
vt 0.510412 0.961009
vt 0.384250 0.961009
vt 0.384250 0.645606
vt 0.641815 0.961011
vt 0.515653 0.961011
vt 0.515653 0.645608
vt 0.923795 0.640636
vt 0.923796 0.325233
vn 0.000000 0.000000 1.000000
vn 0.000000 0.000000 1.000000
vn 0.000000 0.000000 1.000000
vn 0.000000 0.000000 1.000000
vn 0.000000 0.000000 -1.000000
vn 0.000000 0.000000 -1.000000
vn 0.000000 0.000000 -1.000000
vn 0.000000 0.000000 -1.000000
vn 0.000000 -1.000000 0.000000
vn 0.000000 -1.000000 0.000000
vn 0.000000 -1.000000 0.000000
vn 0.000000 -1.000000 0.000000
vn 1.000000 0.000000 0.000000
vn 1.000000 0.000000 0.000000
vn 1.000000 0.000000 0.000000
vn 1.000000 0.000000 0.000000
vn -1.000000 0.000000 0.000000
vn -1.000000 0.000000 0.000000
vn -1.000000 0.000000 0.000000
vn -1.000000 0.000000 0.000000
vn 0.000000 0.894426 -0.447216
vn 0.000000 0.894426 -0.447216
vn 0.000000 0.894426 -0.447216
vn 0.000000 0.894426 -0.447216
vn 0.447214 0.894427 0.000000
vn 0.447214 0.894427 0.000000
vn 0.447213 0.894427 0.000000
vn 0.447213 0.894427 0.000000
vn 0.000000 0.894427 0.447214
vn 0.000000 0.894427 0.447214
vn 0.000000 0.894427 0.447214
vn 0.000000 0.894427 0.447214
vn -0.447214 0.894427 0.000000
vn -0.447214 0.894427 0.000000
vn -0.447214 0.894427 0.000000
vn -0.447214 0.894427 0.000000
vn 0.000000 0.000000 -1.000000
vn 0.000000 0.000000 -1.000000
vn 0.000000 0.000000 -1.000000
vn 0.000000 0.000000 -1.000000
vn 1.000000 0.000000 0.000000
vn 1.000000 0.000000 0.000000
vn 1.000000 0.000000 0.000000
vn 1.000000 0.000000 0.000000
vn 0.000000 0.000000 1.000000
vn 0.000000 0.000000 1.000000
vn 0.000000 0.000000 1.000000
vn 0.000000 0.000000 1.000000
vn -1.000000 0.000000 0.000000
vn -1.000000 0.000000 0.000000
vn -1.000000 0.000000 0.000000
vn -1.000000 0.000000 0.000000
s off
g Divivder_Low pCube1
usemtl initialShadingGroup
f 41/89/89 42/91/90 44/115/91 43/116/92
f 45/93/93 46/94/94 48/111/95 47/112/96
f 53/107/97 54/108/98 55/109/99 56/110/100
f 42/90/101 48/92/102 46/99/103 44/100/104
f 47/101/105 41/102/106 43/113/107 45/114/108
f 47/95/109 48/96/110 50/97/111 49/98/112
f 48/96/113 42/117/114 51/118/115 50/97/116
f 42/117/117 41/119/118 52/120/119 51/118/120
f 41/119/121 47/95/122 49/98/123 52/120/124
f 49/121/125 50/122/126 54/123/127 53/124/128
f 50/104/129 51/125/130 55/126/131 54/127/132
f 51/105/133 52/106/134 56/131/135 55/132/136
f 52/103/137 49/128/138 53/129/139 56/130/140
